<svg width="16" height="16" viewBox="0 0 16 16" fill="none" xmlns="http://www.w3.org/2000/svg">
<path d="M8 1C7.46957 1 6.96086 1.21071 6.58579 1.58579C6.21071 1.96086 6 2.46957 6 3V7C6 7.53043 6.21071 8.03914 6.58579 8.41421C6.96086 8.78929 7.46957 9 8 9C8.53043 9 9.03914 8.78929 9.41421 8.41421C9.78929 8.03914 10 7.53043 10 7V3C10 2.46957 9.78929 1.96086 9.41421 1.58579C9.03914 1.21071 8.53043 1 8 1Z" fill="white"/>
<path d="M4.5 7C4.5 6.80109 4.42098 6.61032 4.28033 6.46967C4.13968 6.32902 3.94891 6.25 3.75 6.25C3.55109 6.25 3.36032 6.32902 3.21967 6.46967C3.07902 6.61032 3 6.80109 3 7C3.00007 8.19616 3.42887 9.35267 4.20862 10.2597C4.98837 11.1668 6.06741 11.7644 7.25 11.944V13.5H5.75C5.55109 13.5 5.36032 13.579 5.21967 13.7197C5.07902 13.8603 5 14.0511 5 14.25C5 14.4489 5.07902 14.6397 5.21967 14.7803C5.36032 14.921 5.55109 15 5.75 15H10.25C10.4489 15 10.6397 14.921 10.7803 14.7803C10.921 14.6397 11 14.4489 11 14.25C11 14.0511 10.921 13.8603 10.7803 13.7197C10.6397 13.579 10.4489 13.5 10.25 13.5H8.75V11.944C9.93259 11.7644 11.0116 11.1668 11.7914 10.2597C12.5711 9.35267 12.9999 8.19616 13 7C13 6.80109 12.921 6.61032 12.7803 6.46967C12.6397 6.32902 12.4489 6.25 12.25 6.25C12.0511 6.25 11.8603 6.32902 11.7197 6.46967C11.579 6.61032 11.5 6.80109 11.5 7C11.5 7.92826 11.1313 8.8185 10.4749 9.47487C9.8185 10.1313 8.92826 10.5 8 10.5C7.07174 10.5 6.1815 10.1313 5.52513 9.47487C4.86875 8.8185 4.5 7.92826 4.5 7Z" fill="white"/>
</svg>
