<svg width="20" height="20" viewBox="0 0 20 20" fill="none" xmlns="http://www.w3.org/2000/svg">
<path d="M17.5 5H2.5" stroke="#2F6FED" stroke-width="1.66667" stroke-linecap="round" stroke-linejoin="round"/>
<path d="M5.83333 10H2.5" stroke="#2F6FED" stroke-width="1.66667" stroke-linecap="round" stroke-linejoin="round"/>
<path d="M5.83333 15H2.5" stroke="#2F6FED" stroke-width="1.66667" stroke-linecap="round" stroke-linejoin="round"/>
<path d="M9.99996 15C10.5247 15.6996 11.2562 16.2164 12.0909 16.4771C12.9257 16.7379 13.8213 16.7294 14.6509 16.4528C15.4805 16.1763 16.2021 15.6457 16.7135 14.9363C17.2248 14.2269 17.5 13.3745 17.5 12.5C17.5 11.5054 17.1049 10.5516 16.4016 9.84835C15.6983 9.14509 14.7445 8.75 13.75 8.75C12.6416 8.75 11.6333 9.2 10.9083 9.925L9.16663 11.6667" stroke="#2F6FED" stroke-width="1.66667" stroke-linecap="round" stroke-linejoin="round"/>
<path d="M9.16663 8.33301V11.6663H12.5" stroke="#2F6FED" stroke-width="1.66667" stroke-linecap="round" stroke-linejoin="round"/>
</svg>
