<svg width="17" height="16" viewBox="0 0 17 16" fill="none" xmlns="http://www.w3.org/2000/svg">
<path d="M8.5 1C7.96957 1 7.46086 1.21071 7.08579 1.58579C6.71071 1.96086 6.5 2.46957 6.5 3V7C6.5 7.53043 6.71071 8.03914 7.08579 8.41421C7.46086 8.78929 7.96957 9 8.5 9C9.03043 9 9.53914 8.78929 9.91421 8.41421C10.2893 8.03914 10.5 7.53043 10.5 7V3C10.5 2.46957 10.2893 1.96086 9.91421 1.58579C9.53914 1.21071 9.03043 1 8.5 1Z" fill="#212121"/>
<path d="M5 7C5 6.80109 4.92098 6.61032 4.78033 6.46967C4.63968 6.32902 4.44891 6.25 4.25 6.25C4.05109 6.25 3.86032 6.32902 3.71967 6.46967C3.57902 6.61032 3.5 6.80109 3.5 7C3.50007 8.19616 3.92887 9.35267 4.70862 10.2597C5.48837 11.1668 6.56741 11.7644 7.75 11.944V13.5H6.25C6.05109 13.5 5.86032 13.579 5.71967 13.7197C5.57902 13.8603 5.5 14.0511 5.5 14.25C5.5 14.4489 5.57902 14.6397 5.71967 14.7803C5.86032 14.921 6.05109 15 6.25 15H10.75C10.9489 15 11.1397 14.921 11.2803 14.7803C11.421 14.6397 11.5 14.4489 11.5 14.25C11.5 14.0511 11.421 13.8603 11.2803 13.7197C11.1397 13.579 10.9489 13.5 10.75 13.5H9.25V11.944C10.4326 11.7644 11.5116 11.1668 12.2914 10.2597C13.0711 9.35267 13.4999 8.19616 13.5 7C13.5 6.80109 13.421 6.61032 13.2803 6.46967C13.1397 6.32902 12.9489 6.25 12.75 6.25C12.5511 6.25 12.3603 6.32902 12.2197 6.46967C12.079 6.61032 12 6.80109 12 7C12 7.92826 11.6313 8.8185 10.9749 9.47487C10.3185 10.1313 9.42826 10.5 8.5 10.5C7.57174 10.5 6.6815 10.1313 6.02513 9.47487C5.36875 8.8185 5 7.92826 5 7Z" fill="#212121"/>
</svg>
