<svg width="20" height="20" viewBox="0 0 20 20" fill="none" xmlns="http://www.w3.org/2000/svg">
<path d="M6.66663 1.66663V4.99996" stroke="#2F6FED" stroke-width="1.5" stroke-linecap="round" stroke-linejoin="round"/>
<path d="M13.3334 1.66663V4.99996" stroke="#2F6FED" stroke-width="1.5" stroke-linecap="round" stroke-linejoin="round"/>
<path d="M17.5 14.1667V5.00004C17.5 4.55801 17.3244 4.13409 17.0118 3.82153C16.6993 3.50897 16.2754 3.33337 15.8333 3.33337H4.16667C3.72464 3.33337 3.30072 3.50897 2.98816 3.82153C2.67559 4.13409 2.5 4.55801 2.5 5.00004V16.6667C2.5 17.1087 2.67559 17.5327 2.98816 17.8452C3.30072 18.1578 3.72464 18.3334 4.16667 18.3334H13.3333L17.5 14.1667Z" stroke="#2F6FED" stroke-width="1.5" stroke-linecap="round" stroke-linejoin="round"/>
<path d="M2.5 8.33337H17.5" stroke="#2F6FED" stroke-width="1.5" stroke-linecap="round" stroke-linejoin="round"/>
<path d="M12.5 18.3334V15C12.5 14.558 12.6756 14.1341 12.9882 13.8215C13.3007 13.509 13.7246 13.3334 14.1667 13.3334H17.5" stroke="#2F6FED" stroke-width="1.5" stroke-linecap="round" stroke-linejoin="round"/>
</svg>
