<svg width="16" height="14" viewBox="0 0 16 14" fill="none" xmlns="http://www.w3.org/2000/svg">
<path fill-rule="evenodd" clip-rule="evenodd" d="M0 0.75C0 0.551088 0.0790175 0.360322 0.21967 0.21967C0.360322 0.0790175 0.551088 0 0.75 0H12.25C12.4489 0 12.6397 0.0790175 12.7803 0.21967C12.921 0.360322 13 0.551088 13 0.75C13 0.948912 12.921 1.13968 12.7803 1.28033C12.6397 1.42098 12.4489 1.5 12.25 1.5H0.75C0.551088 1.5 0.360322 1.42098 0.21967 1.28033C0.0790175 1.13968 0 0.948912 0 0.75ZM0 4.5C0 4.30109 0.0790175 4.11032 0.21967 3.96967C0.360322 3.82902 0.551088 3.75 0.75 3.75H8.258C8.45691 3.75 8.64768 3.82902 8.78833 3.96967C8.92898 4.11032 9.008 4.30109 9.008 4.5C9.008 4.69891 8.92898 4.88968 8.78833 5.03033C8.64768 5.17098 8.45691 5.25 8.258 5.25H0.75C0.551088 5.25 0.360322 5.17098 0.21967 5.03033C0.0790175 4.88968 0 4.69891 0 4.5ZM12 4C12.1989 4 12.3897 4.07902 12.5303 4.21967C12.671 4.36032 12.75 4.55109 12.75 4.75V11.34L14.7 9.24C14.8353 9.09413 15.0229 9.00797 15.2217 9.00047C15.4205 8.99296 15.6141 9.06474 15.76 9.2C15.9059 9.33526 15.992 9.52293 15.9995 9.72172C16.007 9.9205 15.9353 10.1141 15.8 10.26L12.55 13.76C12.4798 13.8357 12.3947 13.8961 12.3001 13.9375C12.2054 13.9788 12.1033 14.0001 12 14.0001C11.8967 14.0001 11.7946 13.9788 11.6999 13.9375C11.6053 13.8961 11.5202 13.8357 11.45 13.76L8.2 10.26C8.13303 10.1878 8.08093 10.1031 8.0467 10.0107C8.01246 9.91834 7.99675 9.82015 8.00047 9.72172C8.00418 9.62329 8.02725 9.52655 8.06835 9.43703C8.10944 9.34752 8.16777 9.26697 8.24 9.2C8.31223 9.13303 8.39694 9.08093 8.4893 9.0467C8.58166 9.01246 8.67985 8.99675 8.77828 9.00047C8.87671 9.00418 8.97345 9.02725 9.06297 9.06835C9.15248 9.10944 9.23303 9.16777 9.3 9.24L11.25 11.34V4.75C11.25 4.55109 11.329 4.36032 11.4697 4.21967C11.6103 4.07902 11.8011 4 12 4ZM0 8.25C0 8.05109 0.0790175 7.86032 0.21967 7.71967C0.360322 7.57902 0.551088 7.5 0.75 7.5H5.312C5.51091 7.5 5.70168 7.57902 5.84233 7.71967C5.98298 7.86032 6.062 8.05109 6.062 8.25C6.062 8.44891 5.98298 8.63968 5.84233 8.78033C5.70168 8.92098 5.51091 9 5.312 9H0.75C0.551088 9 0.360322 8.92098 0.21967 8.78033C0.0790175 8.63968 0 8.44891 0 8.25Z" fill="#2F6FED"/>
</svg>
