<svg width="22" height="18" viewBox="0 0 22 18" fill="none" xmlns="http://www.w3.org/2000/svg">
<path fill-rule="evenodd" clip-rule="evenodd" d="M1.50631 7.76325C7.41068 5.23103 11.3413 3.54844 13.315 2.73213C18.9326 0.416484 20.1135 0.0166593 20.8726 0C21.0413 0 21.4125 0.0333189 21.6655 0.233231C21.8679 0.399824 21.9185 0.616396 21.9523 0.78299C21.986 0.949583 22.0198 1.29943 21.986 1.56598C21.6824 4.73125 20.3665 12.4112 19.6918 15.943C19.405 17.4423 18.8483 17.9421 18.3084 17.9921C17.1276 18.092 16.2335 17.2258 15.1032 16.4927C13.315 15.3433 12.3197 14.6269 10.5822 13.4941C8.57468 12.1946 9.87364 11.4783 11.0208 10.3121C11.3244 10.0123 16.5034 5.34765 16.6046 4.93117C16.6215 4.88119 16.6215 4.68127 16.5034 4.58132C16.3853 4.48136 16.2166 4.51468 16.0817 4.548C15.8961 4.58132 13.062 6.44716 7.54563 10.1289C6.73589 10.6786 6.0105 10.9452 5.35258 10.9285C4.62719 10.9119 3.24388 10.5287 2.19797 10.1955C0.932744 9.79569 -0.0794328 9.57912 0.00491532 8.87943C0.0555242 8.51292 0.561612 8.14642 1.50631 7.76325Z" fill="white"/>
</svg>
