<svg width="26" height="18" viewBox="0 0 26 18" fill="none" xmlns="http://www.w3.org/2000/svg">
<path d="M25.4568 2.81071C25.1577 1.70437 24.2768 0.833077 23.158 0.537385C21.1305 0 13 0 13 0C13 0 4.86958 0 2.84202 0.537385C1.72321 0.833077 0.842048 1.70437 0.543232 2.81071C0 4.816 0 9 0 9C0 9 0 13.1838 0.543232 15.1893C0.842048 16.2957 1.72321 17.1668 2.84191 17.4628C4.86947 18 12.9999 18 12.9999 18C12.9999 18 21.1304 18 23.1579 17.4628C24.2767 17.1669 25.1576 16.2957 25.4567 15.1894C26 13.1839 26 9.00011 26 9.00011C26 9.00011 26 4.81611 25.4567 2.81082" fill="white"/>
<path d="M10.3411 12.7996L17.1365 9.00108L10.3411 5.20215V12.7996Z" fill="#5592CF"/>
</svg>
